<svg width="203" height="31" viewBox="0 0 203 31" fill="none" xmlns="http://www.w3.org/2000/svg">
<path d="M45.624 8.44V25H41.112V8.44H45.624ZM50.4 8.44V11.872H36.312V8.44H50.4ZM58.9508 8.2C60.6148 8.2 61.9108 8.368 62.8387 8.704C63.7828 9.024 64.4548 9.584 64.8548 10.384C65.2548 11.184 65.4548 12.304 65.4548 13.744C65.4548 15.184 65.2628 16.304 64.8788 17.104C64.5108 17.888 63.8948 18.44 63.0308 18.76C62.1668 19.08 61.0068 19.24 59.5508 19.24C58.7828 19.24 58.0148 19.208 57.2468 19.144C56.4948 19.064 55.7908 18.968 55.1348 18.856C54.4788 18.728 53.9188 18.6 53.4548 18.472C52.9908 18.328 52.6708 18.208 52.4948 18.112L52.5668 16C53.5588 16 54.5908 16 55.6628 16C56.7348 16 57.7908 16 58.8308 16C59.3908 15.984 59.8228 15.92 60.1268 15.808C60.4308 15.68 60.6388 15.456 60.7508 15.136C60.8788 14.8 60.9428 14.336 60.9428 13.744C60.9428 13.136 60.8788 12.664 60.7508 12.328C60.6388 11.992 60.4308 11.768 60.1268 11.656C59.8228 11.528 59.3908 11.464 58.8308 11.464C57.2788 11.464 55.9508 11.472 54.8468 11.488C53.7428 11.504 52.9908 11.536 52.5908 11.584L52.2308 8.44C52.9348 8.36 53.5988 8.304 54.2228 8.272C54.8468 8.24 55.5268 8.224 56.2628 8.224C56.9988 8.208 57.8948 8.2 58.9508 8.2ZM56.7428 8.44V25H52.2308V8.44H56.7428ZM74.3526 8.104C75.7286 8.104 76.8886 8.24 77.8326 8.512C78.7766 8.784 79.5446 9.248 80.1366 9.904C80.7286 10.544 81.1526 11.416 81.4086 12.52C81.6646 13.624 81.7926 15.024 81.7926 16.72C81.7926 18.4 81.6646 19.8 81.4086 20.92C81.1526 22.024 80.7286 22.904 80.1366 23.56C79.5446 24.2 78.7766 24.656 77.8326 24.928C76.8886 25.2 75.7286 25.336 74.3526 25.336C72.9926 25.336 71.8326 25.2 70.8726 24.928C69.9286 24.656 69.1606 24.2 68.5686 23.56C67.9766 22.904 67.5526 22.024 67.2966 20.92C67.0406 19.8 66.9126 18.4 66.9126 16.72C66.9126 15.024 67.0406 13.624 67.2966 12.52C67.5526 11.416 67.9766 10.544 68.5686 9.904C69.1606 9.248 69.9286 8.784 70.8726 8.512C71.8326 8.24 72.9926 8.104 74.3526 8.104ZM74.3526 11.536C73.6486 11.536 73.0966 11.68 72.6966 11.968C72.3126 12.256 72.0406 12.776 71.8806 13.528C71.7206 14.28 71.6406 15.344 71.6406 16.72C71.6406 18.096 71.7206 19.16 71.8806 19.912C72.0406 20.664 72.3126 21.184 72.6966 21.472C73.0966 21.76 73.6486 21.904 74.3526 21.904C75.0566 21.904 75.6006 21.76 75.9846 21.472C76.3846 21.184 76.6566 20.664 76.8006 19.912C76.9606 19.16 77.0406 18.096 77.0406 16.72C77.0406 15.344 76.9606 14.28 76.8006 13.528C76.6566 12.776 76.3846 12.256 75.9846 11.968C75.6006 11.68 75.0566 11.536 74.3526 11.536ZM92.1943 8.44V25H87.6823V8.44H92.1943ZM96.9703 8.44V11.872H82.8823V8.44H96.9703ZM111.977 8.44L108.185 20.608C107.881 21.584 107.553 22.408 107.201 23.08C106.849 23.752 106.409 24.272 105.881 24.64C105.353 24.992 104.665 25.208 103.817 25.288C103.385 25.336 102.881 25.344 102.305 25.312C101.729 25.28 101.161 25.224 100.601 25.144C100.041 25.08 99.5691 25.016 99.1851 24.952L99.6651 21.856C100.337 21.888 100.905 21.912 101.369 21.928C101.833 21.928 102.209 21.896 102.497 21.832C102.801 21.768 103.041 21.656 103.217 21.496C103.393 21.336 103.537 21.104 103.649 20.8L104.177 18.856L104.873 17.224L107.369 8.44H111.977ZM101.897 8.44L104.081 16.816C104.129 17.024 104.273 17.128 104.513 17.128H105.425L106.649 20.344H102.833C102.129 20.344 101.601 20.168 101.249 19.816C100.897 19.448 100.625 18.96 100.433 18.352L97.2651 8.44H101.897ZM121.034 8.44C121.402 8.44 121.722 8.544 121.994 8.752C122.282 8.96 122.474 9.248 122.57 9.616L127.106 25H122.498L119.594 13.576C119.53 13.304 119.474 13.016 119.426 12.712C119.378 12.392 119.33 12.096 119.282 11.824H118.634C118.602 12.096 118.554 12.392 118.49 12.712C118.442 13.016 118.386 13.304 118.322 13.576L115.418 25H110.81L115.346 9.616C115.442 9.248 115.626 8.96 115.898 8.752C116.186 8.544 116.514 8.44 116.882 8.44H121.034ZM123.314 17.824V21.064H114.602V17.824H123.314ZM135.216 8.2C136.88 8.2 138.176 8.368 139.104 8.704C140.048 9.024 140.72 9.584 141.12 10.384C141.52 11.184 141.72 12.304 141.72 13.744C141.72 15.184 141.528 16.304 141.144 17.104C140.776 17.888 140.16 18.44 139.296 18.76C138.432 19.08 137.272 19.24 135.816 19.24C135.048 19.24 134.28 19.208 133.512 19.144C132.76 19.064 132.056 18.968 131.4 18.856C130.744 18.728 130.184 18.6 129.72 18.472C129.256 18.328 128.936 18.208 128.76 18.112L128.832 16C129.824 16 130.856 16 131.928 16C133 16 134.056 16 135.096 16C135.656 15.984 136.088 15.92 136.392 15.808C136.696 15.68 136.904 15.456 137.016 15.136C137.144 14.8 137.208 14.336 137.208 13.744C137.208 13.136 137.144 12.664 137.016 12.328C136.904 11.992 136.696 11.768 136.392 11.656C136.088 11.528 135.656 11.464 135.096 11.464C133.544 11.464 132.216 11.472 131.112 11.488C130.008 11.504 129.256 11.536 128.856 11.584L128.496 8.44C129.2 8.36 129.864 8.304 130.488 8.272C131.112 8.24 131.792 8.224 132.528 8.224C133.264 8.208 134.16 8.2 135.216 8.2ZM133.008 8.44V25H128.496V8.44H133.008ZM157.41 8.44C157.042 9.64 156.73 10.664 156.474 11.512C156.218 12.36 155.97 13.072 155.73 13.648C155.49 14.224 155.218 14.696 154.914 15.064C154.626 15.416 154.266 15.688 153.834 15.88C153.402 16.072 152.858 16.208 152.202 16.288V16.432C152.89 16.528 153.458 16.672 153.906 16.864C154.37 17.04 154.762 17.32 155.082 17.704C155.418 18.072 155.722 18.568 155.994 19.192C156.266 19.816 156.546 20.6 156.834 21.544C157.122 22.488 157.474 23.64 157.89 25H153.186C152.754 23.496 152.394 22.28 152.106 21.352C151.834 20.408 151.562 19.688 151.29 19.192C151.018 18.696 150.698 18.36 150.33 18.184C149.978 17.992 149.514 17.896 148.938 17.896L148.866 14.896C149.458 14.896 149.938 14.792 150.306 14.584C150.674 14.376 150.986 14.032 151.242 13.552C151.498 13.056 151.746 12.392 151.986 11.56C152.226 10.728 152.514 9.688 152.85 8.44H157.41ZM148.266 8.44V12.856C148.266 13.432 148.21 14.024 148.098 14.632C148.002 15.224 147.85 15.784 147.642 16.312C147.802 16.808 147.946 17.344 148.074 17.92C148.202 18.48 148.266 18.992 148.266 19.456V25H143.778V8.44H148.266ZM150.042 14.896V17.896H147.162V14.896H150.042ZM168.26 8.44C168.628 8.44 168.948 8.544 169.22 8.752C169.508 8.96 169.7 9.248 169.796 9.616L174.332 25H169.724L166.82 13.576C166.756 13.304 166.7 13.016 166.652 12.712C166.604 12.392 166.556 12.096 166.508 11.824H165.86C165.828 12.096 165.78 12.392 165.716 12.712C165.668 13.016 165.612 13.304 165.548 13.576L162.644 25H158.036L162.572 9.616C162.668 9.248 162.852 8.96 163.124 8.752C163.412 8.544 163.74 8.44 164.108 8.44H168.26ZM170.54 17.824V21.064H161.828V17.824H170.54ZM186.355 8.44L186.211 11.728H179.371L179.203 14.08L181.987 14.44C182.963 14.536 183.763 14.752 184.387 15.088C185.011 15.408 185.507 15.816 185.875 16.312C186.243 16.808 186.499 17.36 186.643 17.968C186.787 18.576 186.859 19.216 186.859 19.888C186.859 20.624 186.763 21.32 186.571 21.976C186.379 22.632 186.051 23.208 185.587 23.704C185.139 24.2 184.523 24.592 183.739 24.88C182.971 25.152 181.995 25.288 180.811 25.288C179.979 25.288 179.051 25.248 178.027 25.168C177.019 25.088 175.987 24.968 174.931 24.808L175.339 21.448C176.139 21.496 176.907 21.544 177.643 21.592C178.395 21.64 179.059 21.664 179.635 21.664C180.371 21.664 180.931 21.6 181.315 21.472C181.699 21.328 181.971 21.12 182.131 20.848C182.291 20.56 182.379 20.192 182.395 19.744C182.427 19.344 182.387 19.024 182.275 18.784C182.179 18.528 182.011 18.328 181.771 18.184C181.531 18.024 181.219 17.912 180.835 17.848C180.451 17.784 179.979 17.728 179.419 17.68L176.827 17.368C176.443 17.32 176.131 17.16 175.891 16.888C175.651 16.6 175.539 16.272 175.555 15.904L175.987 8.44H186.355ZM194.648 8.152C195.96 8.152 197.032 8.28 197.864 8.536C198.712 8.792 199.36 9.232 199.808 9.856C200.256 10.464 200.568 11.312 200.744 12.4C200.92 13.488 201.008 14.88 201.008 16.576C201.008 18.448 200.872 19.96 200.6 21.112C200.344 22.264 199.936 23.144 199.376 23.752C198.816 24.36 198.072 24.768 197.144 24.976C196.216 25.184 195.096 25.288 193.784 25.288C193.304 25.288 192.648 25.264 191.816 25.216C191 25.168 190.112 25.032 189.152 24.808L189.368 22.024C189.864 22.04 190.304 22.056 190.688 22.072C191.088 22.072 191.52 22.072 191.984 22.072C192.464 22.072 193.064 22.072 193.784 22.072C194.44 22.072 194.96 21.984 195.344 21.808C195.744 21.632 196.04 21.336 196.232 20.92C196.424 20.488 196.552 19.896 196.616 19.144C196.68 18.392 196.712 17.448 196.712 16.312C196.712 15.256 196.688 14.4 196.64 13.744C196.608 13.088 196.528 12.592 196.4 12.256C196.272 11.904 196.064 11.672 195.776 11.56C195.504 11.432 195.12 11.368 194.624 11.368C194.048 11.368 193.616 11.456 193.328 11.632C193.056 11.808 192.88 12.104 192.8 12.52C192.72 12.92 192.68 13.456 192.68 14.128C192.68 14.704 192.736 15.152 192.848 15.472C192.96 15.792 193.152 16.016 193.424 16.144C193.696 16.272 194.088 16.336 194.6 16.336C195 16.336 195.36 16.288 195.68 16.192C196.016 16.08 196.384 15.904 196.784 15.664C197.184 15.424 197.696 15.096 198.32 14.68L198.416 16.264C197.888 17.08 197.384 17.712 196.904 18.16C196.424 18.608 195.896 18.92 195.32 19.096C194.76 19.272 194.072 19.36 193.256 19.36C192.024 19.36 191.056 19.144 190.352 18.712C189.664 18.28 189.176 17.68 188.888 16.912C188.6 16.144 188.456 15.248 188.456 14.224C188.456 12.8 188.632 11.648 188.984 10.768C189.336 9.872 189.96 9.216 190.856 8.8C191.768 8.368 193.032 8.152 194.648 8.152Z" fill="white"/>
<path fill-rule="evenodd" clip-rule="evenodd" d="M2.29633 0H31V28.7037H14.3519V31H0V16.6482H14.3519V28.7037H16.6481V14.3518H2.29633V0Z" fill="white"/>
</svg>
